<?xml version="1.0" standalone="no"?><!DOCTYPE svg PUBLIC "-//W3C//DTD SVG 1.1//EN" "http://www.w3.org/Graphics/SVG/1.1/DTD/svg11.dtd"><svg t="1534504880841" class="icon" style="" viewBox="0 0 1024 1024" version="1.1" xmlns="http://www.w3.org/2000/svg" p-id="6437" xmlns:xlink="http://www.w3.org/1999/xlink" width="200" height="200"><defs><style type="text/css"></style></defs><path d="M822.174274 93.477178c21.244813 0 38.240664 16.995851 38.240664 38.240664l0 849.792531c0 6.373444 4.248963 10.622407 10.622407 8.497925 27.618257-4.248963 46.738589-27.618257 46.738589-57.360996l0-830.672199c0-36.116183-29.742739-65.858921-65.858921-65.858921l-686.207469 0C131.717842 36.116183 106.224066 61.609959 106.224066 93.477178l0 830.672199c0 36.116183 29.742739 65.858921 65.858921 65.858921l516.248963 0c16.995851 0 29.742739-12.746888 29.742739-29.742739 0-16.995851-12.746888-29.742739-29.742739-29.742739L193.327801 930.522822c-16.995851 0-29.742739-12.746888-29.742739-29.742739l0 0 0-67.983402L163.585062 186.954357 163.585062 131.717842c0-21.244813 16.995851-38.240664 38.240664-38.240664l67.983402 0L822.174274 93.477178z" p-id="6438"></path><path d="M692.580913 354.788382l-361.161826 0c-6.373444 0-12.746888-6.373444-12.746888-12.746888l0-33.991701c0-6.373444 6.373444-12.746888 12.746888-12.746888l361.161826 0c6.373444 0 12.746888 6.373444 12.746888 12.746888l0 33.991701C705.327801 350.539419 698.954357 354.788382 692.580913 354.788382z" p-id="6439"></path><path d="M692.580913 541.742739l-361.161826 0c-6.373444 0-12.746888-6.373444-12.746888-12.746888l0-33.991701c0-6.373444 6.373444-12.746888 12.746888-12.746888l361.161826 0c6.373444 0 12.746888 6.373444 12.746888 12.746888l0 33.991701C705.327801 535.369295 698.954357 541.742739 692.580913 541.742739z" p-id="6440"></path><path d="M692.580913 726.572614l-361.161826 0c-6.373444 0-12.746888-6.373444-12.746888-12.746888L318.672199 679.834025c0-6.373444 6.373444-12.746888 12.746888-12.746888l361.161826 0c6.373444 0 12.746888 6.373444 12.746888 12.746888l0 33.991701C705.327801 720.19917 698.954357 726.572614 692.580913 726.572614z" p-id="6441"></path></svg>