<?xml version="1.0" standalone="no"?><!DOCTYPE svg PUBLIC "-//W3C//DTD SVG 1.1//EN" "http://www.w3.org/Graphics/SVG/1.1/DTD/svg11.dtd"><svg t="1534504811131" class="icon" style="" viewBox="0 0 1024 1024" version="1.1" xmlns="http://www.w3.org/2000/svg" p-id="1629" xmlns:xlink="http://www.w3.org/1999/xlink" width="200" height="200"><defs><style type="text/css"></style></defs><path d="M511.286 960.467c-14.112 0-27.59-7.117-37.006-19.539-12.759-16.45-289.944-375.99-289.944-550.492 0-180.258 146.651-326.908 326.908-326.908s326.909 146.651 326.909 326.908c0 174.81-278.17 535.315-290.01 550.577-9.164 12.247-22.635 19.428-36.777 19.455l-0.08-0.001z m-0.042-861.396c-160.657 0-291.365 130.707-291.365 291.365 0 162.764 279.725 525.145 282.55 528.786l0.148 0.195c2.677 3.551 5.772 5.502 8.71 5.502h0.014c2.901-0.006 5.945-1.94 8.572-5.448 3.013-3.89 282.736-366.33 282.736-529.035 0-160.658-130.708-291.365-291.365-291.365z m0.186 352.739c-51.692 0-93.746-42.057-93.746-93.748s42.054-93.746 93.746-93.746 93.746 42.054 93.746 93.746-42.054 93.748-93.746 93.748z m0-151.95c-32.092 0-58.202 26.11-58.202 58.2s26.111 58.203 58.202 58.203 58.201-26.111 58.201-58.202-26.11-58.202-58.201-58.202z" p-id="1630"></path></svg>